<svg width="112" height="94" viewBox="0 0 112 94" fill="none" xmlns="http://www.w3.org/2000/svg">
<g clip-path="url(#clip0)">
<path d="M46.9203 4.1618C53.6144 1.34008 60.9816 0.186206 68.2263 0.681215C75.3185 1.21244 82.2912 3.35116 88.4176 6.9611C93.9086 10.1847 98.7312 14.5346 102.493 19.6623C106.885 25.6335 109.816 32.6688 110.923 39.9922C111.773 45.7978 111.6 51.7793 110.206 57.4879C111.113 59.2558 111.567 61.2914 111.261 63.268C110.911 66.2432 108.997 68.9645 106.331 70.343C105.723 70.7586 104.823 70.7655 104.409 71.4261C99.5534 79.1769 92.3764 85.4794 84.0069 89.2275C82.2602 90.0398 80.4409 90.6832 78.6148 91.2903L78.2358 91.3731C69.4387 94.0637 59.8363 93.9689 51.0512 91.2662C44.475 89.1913 38.3486 85.69 33.2904 81.0107C28.4471 76.5625 24.5591 71.0863 21.9814 65.0445C20.832 62.3935 19.9993 59.6201 19.3207 56.819C18.109 56.0812 16.6481 55.8704 15.2527 56.0312C12.3707 56.3278 9.64425 57.3658 6.85533 58.0764C8.84259 56.6172 11.0099 55.403 13.2568 54.3906C9.68735 54.4373 6.18713 55.2737 2.725 56.0743C1.79715 56.3037 0.869125 56.5398 -0.0483398 56.8037C3.51593 53.0042 8.20539 50.4327 13.0403 48.5938C11.3869 48.3834 9.71141 48.1881 8.13251 47.6245C6.65245 47.1312 5.27278 46.3671 4.03334 45.4254C5.22778 45.3892 6.42741 45.4649 7.61838 45.3271C11.2952 45.3529 15.1554 45.1546 18.4341 43.3143C19.0363 35.3717 21.7783 27.6016 26.2791 21.0216C31.3338 13.5756 38.5904 7.62514 46.9203 4.1618Z" fill="#262453"/>
<path d="M59.7252 2.33875C65.6229 1.73508 71.6522 2.1335 77.3509 3.81516C89.4043 7.2371 99.8115 15.9368 105.309 27.1548C108.027 32.5912 109.61 38.595 109.888 44.6629C109.848 45.932 110.079 47.1983 109.911 48.4643C109.872 50.9631 109.535 53.4454 109.073 55.8994C108.74 55.5869 108.397 55.2856 108.045 54.996C108.552 51.7569 108.921 48.4674 108.709 45.1872C108.664 44.3297 108.637 43.4728 108.552 42.6187C107.863 35.8095 105.555 29.1638 101.82 23.4168C98.0614 17.5821 92.8942 12.6544 86.8804 9.16867C80.6486 5.55355 73.5099 3.4614 66.2946 3.29065C65.4273 3.16302 64.548 3.25616 63.6755 3.22684L63.5595 3.31135C55.9861 3.41829 48.4904 5.73465 42.0335 9.64816C35.7048 13.5082 30.3713 18.9792 26.7049 25.4091C23.8764 30.3195 22.0485 35.7921 21.3198 41.4045C20.9786 41.8184 20.4731 42.0495 20.0232 42.3238C20.8454 33.9607 24.1847 25.8834 29.3952 19.2843C34.8342 12.3697 42.3418 7.08153 50.7167 4.32552C53.6424 3.36154 56.6664 2.69923 59.7252 2.33875Z" fill="#F9FCFA"/>
<path d="M61.7127 5.95367C62.6076 5.5035 63.8538 5.43624 64.5984 6.20031C65.1071 6.65737 65.1885 7.3766 65.3583 8.00097C64.8719 8.04236 64.3837 8.06996 63.8975 8.06479C63.7313 7.75778 63.7244 7.26967 63.3401 7.14203C63.0302 7.06269 62.7117 7.15066 62.4036 7.18515C62.3791 7.44387 62.3655 7.70258 62.3585 7.96302C63.2378 8.28556 64.2245 8.46838 64.9136 9.15312C65.6839 9.87752 65.6235 11.1159 65.1627 11.9921C64.4755 13.2788 62.5486 13.4562 61.4755 12.5699C60.9024 12.03 60.7937 11.2228 60.6758 10.4881C61.1987 10.4881 61.7213 10.4881 62.2443 10.4829C62.3585 10.7985 62.4036 11.1538 62.6199 11.4264C62.8327 11.7454 63.2447 11.6213 63.5684 11.6385C63.7967 11.2384 63.9252 10.7656 63.7742 10.3156C63.2706 9.84302 62.5211 9.84992 61.9272 9.54119C60.5562 8.94442 60.4108 6.70049 61.7127 5.95367Z" fill="#FCFDFC"/>
<path d="M68.5777 6.02803C69.4346 5.85556 70.5044 5.88143 71.1363 6.58168C71.6573 7.10946 71.7231 7.89596 71.7162 8.59622C71.2645 8.58414 70.8143 8.5462 70.3678 8.49101C70.2205 8.1702 70.1324 7.82869 69.9989 7.50271C69.7029 7.45959 69.3498 7.21813 69.0796 7.4389C68.7297 7.5993 68.6851 8.1426 69.059 8.30128C69.7928 8.68935 70.6275 8.98946 71.1399 9.6811C71.7908 10.4848 71.5985 11.6887 71.0481 12.4925C70.1637 13.7395 68.0101 13.6741 67.1671 12.4237C66.7759 11.8457 66.8034 11.1146 66.7795 10.4505C67.2936 10.5126 67.8076 10.5833 68.3254 10.6109C68.4171 11.0059 68.3775 11.475 68.6854 11.782C68.8622 11.8857 69.0663 11.9288 69.2619 11.9857C69.3623 11.9305 69.5596 11.8219 69.6583 11.7665C69.871 11.3905 69.916 10.9628 69.8383 10.5419C69.144 10.1038 68.2923 9.88997 67.7141 9.28975C66.9005 8.27886 67.2554 6.42818 68.5777 6.02803ZM54.6965 7.09912C55.3337 6.59721 56.2112 6.47475 56.9865 6.67482C57.8936 6.99563 58.5012 7.87871 58.6274 8.81181C58.1186 8.94117 57.6076 9.06708 57.0902 9.14297C57.0106 8.89288 56.9327 8.64279 56.855 8.39442C56.5815 8.33233 56.3097 8.27196 56.0363 8.21159C55.7646 8.39959 55.4166 8.55137 55.3439 8.91013C55.5032 9.86737 55.7074 10.8177 55.9323 11.7594C56.0552 12.3976 56.9571 12.603 57.3862 12.1406C57.6772 11.8888 57.568 11.4612 57.627 11.1265C58.0961 10.9798 58.5722 10.8332 59.0621 10.7677C59.3925 11.2196 59.365 11.8405 59.2315 12.3597C58.8923 13.2686 57.9452 13.7636 57.0539 13.9913C55.8766 14.1552 54.5475 13.3583 54.3638 12.1389C54.1561 11.073 53.936 10.0088 53.7543 8.93945C53.6059 8.18745 54.1285 7.52341 54.6965 7.09912ZM78.9297 10.7298C79.314 9.92774 80.0461 9.13435 81.012 9.17574C82.3518 9.18436 83.8683 10.283 83.6432 11.7491C83.4493 12.7581 82.8623 13.6308 82.4972 14.5812C82.082 15.4436 81.779 16.3646 81.2803 17.1856C80.8079 17.0631 80.3803 16.8218 79.937 16.6269C80.048 15.9681 80.413 15.3989 80.6621 14.79C81.0705 13.8259 81.5363 12.8859 81.9224 11.9131C82.0816 11.5889 81.8754 11.2767 81.7718 10.9748C81.3598 10.9145 80.7883 10.7748 80.5669 11.2474C79.8657 12.7807 79.2027 14.3313 78.5002 15.8628C77.9271 15.8059 77.4147 15.5265 76.9265 15.2454C77.5828 13.7359 78.27 12.2389 78.9297 10.7298Z" fill="#FBFDFA"/>
<path d="M42.1309 12.3892C42.5809 12.12 43.0258 11.8373 43.4982 11.6079C44.5559 13.274 45.4682 15.0299 46.5103 16.7065C47.2927 16.2665 48.0527 15.7905 48.8507 15.3853C49.1173 15.8234 49.37 16.2684 49.6039 16.7238C48.3469 17.3981 47.1319 18.1467 45.8838 18.8402C44.6288 16.6906 43.4067 14.5245 42.1309 12.3892Z" fill="#FAFDFA"/>
<path d="M85.6825 12.9218C86.806 12.1767 88.5268 12.6096 89.1566 13.798C89.3454 14.1119 89.4353 14.4707 89.5566 14.8156C89.522 15.3003 89.4562 15.8108 89.1516 16.211C88.4955 17.1147 87.886 18.053 87.1989 18.9325C86.6954 19.5605 85.8054 19.6931 85.0559 19.5225C83.6572 19.2586 82.6237 17.651 83.1913 16.3005C83.5514 15.652 84.0325 15.0776 84.4358 14.455C84.8308 13.9291 85.144 13.3202 85.6825 12.9218Z" fill="#FBFDFA"/>
<path d="M86.0614 14.6637C86.2484 14.3584 86.5738 14.1999 86.8925 14.0601C87.1558 14.1758 87.4188 14.2946 87.6784 14.4224C87.8186 14.8122 87.9969 15.2743 87.7198 15.6522C87.3095 16.28 86.875 16.8923 86.432 17.496C86.0218 17.9944 85.2755 18.0203 84.7839 17.6288C84.7148 17.4356 84.6454 17.2459 84.5762 17.0544C84.9035 16.1644 85.5421 15.4435 86.0614 14.6637Z" fill="#262453"/>
<path d="M37.9309 15.5469C38.7895 14.6552 40.4254 14.462 41.3222 15.402C42.5113 16.6869 43.7369 17.9426 44.8952 19.2603C44.5178 19.607 44.1525 19.9675 43.7752 20.3124C42.5374 19.1396 41.4746 17.7979 40.2438 16.6199C39.9858 16.3454 39.586 16.4612 39.2553 16.4508C39.0424 16.7768 38.807 17.2375 39.1117 17.5875C40.2074 18.8241 41.3569 20.0159 42.5011 21.2095C42.4959 21.3147 42.4924 21.4216 42.489 21.5287C42.0995 21.8392 41.7482 22.1928 41.3794 22.5274C40.3476 21.3888 39.264 20.2971 38.2446 19.1484C37.9589 18.8586 37.6474 18.4535 37.1834 18.5844C36.7074 18.7172 36.4148 19.3605 36.8164 19.7348C37.9538 21.0042 39.1343 22.2357 40.3097 23.4724C39.9618 23.8932 39.5429 24.2451 39.1257 24.5971C37.9468 23.3777 36.8078 22.1186 35.6359 20.8938C34.954 20.2453 34.8344 19.1829 35.2067 18.3429C35.5078 17.4633 36.4166 16.9581 37.3167 16.9165C37.4462 16.4317 37.5691 15.9196 37.9309 15.5469Z" fill="#FBFDFB"/>
<path d="M51.7188 18.0466C57.8434 15.2456 64.8749 14.4988 71.4617 15.8993C77.8234 17.2241 83.7246 20.5805 88.156 25.3081C90.5777 27.9071 92.5721 30.8961 94.031 34.1318C95.0177 36.4396 95.821 38.8425 96.2226 41.3258C92.911 40.679 89.6409 39.8011 86.4609 38.6714C84.9514 38.1281 83.456 37.5279 82.045 36.7621C81.8217 36.6465 81.6226 36.4947 81.4685 36.2999C80.8298 35.5444 80.191 34.7924 79.5505 34.0404C79.3893 33.7455 79.0431 33.8572 78.7752 33.8434C78.7178 33.5374 78.6698 33.2297 78.6315 32.9207C78.0031 32.2825 78.0168 31.3753 77.9873 30.5422C77.7277 28.0154 77.8525 25.4179 77.1045 22.9601C76.123 20.7835 74.1115 19.0225 71.7174 18.6085C70.026 18.3448 68.2761 18.4757 66.6315 18.9449C63.5745 19.7986 60.7804 21.3701 58.1303 23.0791C55.7364 24.6471 53.4616 26.3907 51.2599 28.214C48.5371 28.364 46.0199 29.5144 43.6276 30.7304C42.0592 31.491 40.4944 32.3327 38.7719 32.6915C37.9151 32.8001 37.053 32.8657 36.21 33.069C39.4316 26.4756 45.0111 21.0665 51.7188 18.0466Z" fill="white"/>
<path d="M91.2186 16.5575C91.511 16.2643 91.7656 15.8418 92.2384 15.8711C93.0018 16.7973 94.2272 17.4061 94.5509 18.6359C94.6618 19.307 94.5145 20.0571 94.0316 20.559C93.3253 21.3507 92.6015 22.1285 91.8522 22.8805C91.2532 23.5084 90.2734 23.5599 89.4908 23.31C88.506 22.7805 87.7511 21.9266 86.9375 21.1765C88.3243 19.5999 89.8164 18.12 91.2186 16.5575Z" fill="#FBFDFB"/>
<path d="M92.1184 18.0806C92.5618 18.3462 92.9249 18.7429 92.9512 19.2862C92.1653 20.133 91.3812 20.9834 90.5797 21.8164C90.332 21.8112 90.0829 21.8078 89.8371 21.8026C89.6276 21.5991 89.4162 21.3956 89.2068 21.1953C90.1931 20.1718 91.1637 19.1334 92.1184 18.0806Z" fill="#262453"/>
<path d="M62.339 23.8003C64.7506 22.4188 67.3158 21.1131 70.1169 20.7939C71.8929 20.5559 73.8939 21.0785 75.0035 22.5618C75.9087 23.5485 76.0094 24.9439 76.1323 26.2097C76.2916 27.4808 76.2206 28.7692 76.4178 30.0387C75.921 30.1335 75.4293 30.275 74.9239 30.3146C74.6642 30.1922 74.4063 30.0733 74.1776 29.9024C74.0893 29.5574 74.0357 29.2056 73.982 28.8537C71.9411 29.2315 69.7892 29.6523 68.1189 30.963C67.2791 31.6011 66.7823 32.5879 66.6092 33.6122C66.6075 33.9209 66.6006 34.2314 66.6231 34.5436C66.9054 34.7778 67.3105 34.7161 67.6511 34.8002C67.1751 35.6716 66.7493 36.584 66.6194 37.5775V38.2674C67.4175 38.1432 68.096 37.6878 68.8423 37.4136C68.8096 37.5913 68.7452 37.9466 68.7142 38.1242C68.6986 38.3657 68.6848 38.6071 68.6728 38.8486C68.8285 39.2307 69.0167 39.5989 69.2354 39.949C70.3104 39.7158 71.2398 39.097 72.2665 38.731L72.1486 39.3243C72.1902 39.4416 72.2717 39.6744 72.3112 39.79C73.4171 39.5209 74.4628 39.0483 75.3944 38.3964C76.608 37.6202 77.7867 36.6009 79.2635 36.4093C80.0876 36.9267 80.4716 37.9961 81.3427 38.4949C82.7587 39.3466 84.296 39.9744 85.8365 40.5646C89.0007 41.7357 92.257 42.6598 95.5599 43.3515C97.2771 43.7257 99.0271 43.981 100.692 44.5571C101.624 44.8934 102.562 45.4609 102.974 46.4009C103.749 48.2481 103.739 50.4334 102.825 52.2289C102.007 53.7329 100.545 54.9609 98.8351 55.2883C91.9868 56.8664 85.0279 57.9275 78.0659 58.8499C75.9973 59.0776 73.9339 59.326 71.8599 59.5003C67.0789 59.9265 62.2783 60.1659 57.4746 60.1076C55.901 60.13 54.3136 60.0938 52.7764 59.7301C52.1742 59.5026 51.5559 59.247 51.1214 58.754C50.5261 58.1778 50.3599 57.3397 50.2074 56.5618C49.9529 55.1337 49.6121 53.7123 49.5634 52.2566C49.5098 50.9905 49.941 49.7814 50.1814 48.5534C50.9275 44.8487 51.5124 41.1075 52.4629 37.4441C52.5891 36.9957 52.5182 36.5214 52.643 36.0733C53.1434 33.9898 53.7336 31.9302 54.2736 29.857C54.3377 29.6794 54.3619 29.4653 54.5125 29.3396C57.0041 27.3361 59.5797 25.4233 62.339 23.8003Z" fill="white"/>
<path d="M91.0435 25.2575C93.0636 23.8018 95.0768 22.3372 97.1003 20.8867C97.8221 21.9235 98.5855 22.9307 99.3195 23.9587C98.9023 24.2519 98.5092 24.5831 98.0576 24.8211C97.5625 24.2623 97.1488 23.6362 96.716 23.0289C96.394 23.2533 96.0686 23.4721 95.7431 23.6895C95.762 24.1931 96.1795 24.5363 96.4181 24.9504C96.0355 25.2349 95.6478 25.5162 95.2496 25.7801C94.9849 25.4127 94.7303 25.0384 94.4325 24.6986C94.0881 24.8987 93.7659 25.1315 93.4406 25.3573L93.2123 25.6404C93.652 26.232 94.0917 26.8234 94.5056 27.4358C94.0953 27.7463 93.6745 28.0412 93.24 28.317C92.5218 27.2875 91.7099 26.3216 91.0435 25.2575Z" fill="#FBFDFB"/>
<path d="M32.0091 21.7079C32.1718 21.4887 32.3051 21.2371 32.532 21.0767C32.9837 21.2767 33.3437 21.632 33.7438 21.9183C33.4287 22.3547 33.105 22.7825 32.8142 23.2378C34.4118 24.3777 35.989 25.5455 37.5902 26.6785C37.353 27.1272 37.0397 27.5271 36.7333 27.929C35.1044 26.7803 33.5083 25.5868 31.8777 24.4415C31.6007 24.8503 31.3376 25.2711 31.0191 25.6489C30.5119 25.623 30.1587 25.1263 29.7346 24.8865C30.4253 23.7811 31.2716 22.7825 32.0091 21.7079Z" fill="#FCFDFA"/>
<path d="M27.9517 28.176C28.2235 27.6498 28.497 27.1237 28.8277 26.6323C30.9657 27.7914 33.159 28.864 35.262 30.0836C35.288 30.6666 34.7929 31.1874 34.5177 31.6895C33.6331 31.2687 32.823 30.689 31.8986 30.3615C31.7618 30.6614 31.6216 30.9632 31.4848 31.267C32.319 31.7637 33.2434 32.1086 34.0345 32.6813C33.7801 33.1951 33.5014 33.6973 33.2313 34.2023C31.0381 33.1037 28.8881 31.917 26.7173 30.7804C26.636 30.4527 26.9199 30.1509 27.0358 29.8559C27.1899 29.6403 27.2522 29.299 27.524 29.2041C28.4034 29.5957 29.2168 30.1234 30.0962 30.5201C30.2589 30.2183 30.4251 29.9182 30.6017 29.6232C29.7224 29.1332 28.8225 28.6796 27.9517 28.176Z" fill="#FCFEFB"/>
<path d="M94.0124 28.9966C94.208 28.4654 94.8691 28.4325 95.2899 28.7103C95.4736 29.0863 95.4888 29.4848 95.2794 29.8539C95.0682 29.9366 94.8587 30.0194 94.6491 30.1057C94.2632 29.8901 93.6939 29.502 94.0124 28.9966Z" fill="#F6FCF8"/>
<path d="M68.4774 32.4655C70.0667 31.1029 72.0677 30.413 74.0357 29.7988L74.1777 29.9025C74.406 30.0732 74.6643 30.1922 74.9239 30.3147C72.7374 31.1754 70.6307 32.224 68.4738 33.152C68.4705 32.9208 68.4724 32.6947 68.4774 32.4655Z" fill="#F8FBF9"/>
<path d="M95.8473 31.3527C96.1363 30.6731 96.7924 30.2592 97.4449 29.9746C97.6682 30.4869 97.9034 30.9939 98.1234 31.5097C97.6751 31.7494 97.256 32.1028 97.3531 32.6618C97.6128 32.7273 97.8846 32.955 98.1598 32.8153C99.7991 32.1582 101.366 31.3355 102.986 30.6352C103.22 31.1768 103.485 31.7027 103.703 32.2513C102.524 32.8188 101.324 33.3448 100.145 33.9123C99.3319 34.2382 98.487 34.7229 97.5801 34.5521C96.1883 34.321 95.2381 32.6394 95.8473 31.3527Z" fill="#FCFDFB"/>
<path d="M40.1743 34.9454C44.3152 34.114 47.6577 31.0008 51.9111 30.5645C51.4193 32.5669 50.824 34.5435 50.341 36.5494C50.1956 37.1772 50.2198 37.8344 50.0242 38.4518C48.9181 42.731 48.3624 47.1274 47.3324 51.4238C47.0537 52.7138 47.2095 54.0472 47.4553 55.3301C47.5782 56.1875 47.76 57.0428 48.0958 57.8465C46.6781 57.9072 45.2863 58.3885 44.0797 59.1215C42.7035 59.9287 41.6701 61.3461 40.01 61.6117C37.9308 61.7618 36.1445 60.4302 34.1105 60.2769C33.3729 60.2733 32.6859 60.6407 31.9431 60.6113C32.0781 60.5113 32.2133 60.4147 32.35 60.3181C33.3904 59.7752 34.4254 59.147 35.6114 58.978C37.0584 58.8141 38.5144 58.7124 39.951 58.4743C40.7369 58.3329 41.4606 57.9638 42.0596 57.4412C42.8489 56.7789 44.1455 56.6357 44.5056 55.5457C44.5816 54.7695 44.419 53.5174 43.4444 53.4142C42.6135 53.5329 41.9297 54.0865 41.2893 54.5888C40.2229 55.4253 39.2604 56.3998 38.1093 57.1259C37.5917 57.4816 36.9374 57.3777 36.3455 57.3864C35.4694 57.3726 34.6369 57.0433 33.7678 56.9776C32.4539 57.1159 31.1989 57.5626 29.9542 57.9831C29.0004 58.2763 28.0258 58.5975 27.015 58.5473C25.6423 58.5076 24.3336 58.0092 23.1201 57.4003C23.9545 57.3727 24.7976 57.4471 25.6267 57.3106C28.4328 56.9088 30.9723 55.5531 33.7056 54.8822C34.5781 54.6269 35.518 54.8891 36.3767 54.556C37.6663 54.111 38.8815 53.0363 39.0581 51.6289C39.1464 51.0839 38.93 50.5768 38.6755 50.1128C37.9 49.411 36.8215 49.8355 36.0251 50.2667C33.7262 51.5637 31.8378 53.461 29.5561 54.7835C28.9383 55.1336 28.232 55.3406 27.5171 55.3116C25.9885 55.2702 24.524 54.7852 23.0213 54.5527C21.6347 54.2957 20.2204 54.3458 18.8184 54.401C21.4583 53.1281 24.4686 53.2609 27.2955 52.745C28.3307 52.5468 29.4593 52.4106 30.3058 51.7327C30.6416 51.4913 30.6537 51.0463 30.7109 50.6772C30.356 49.6854 29.5338 48.7403 28.4053 48.7178C26.6552 48.7717 25.2011 49.8752 23.7937 50.7876C22.8208 51.4137 21.8374 52.3174 20.5893 52.171C19.3101 51.9985 18.0604 51.5779 16.7567 51.5948L16.6442 51.5206C15.3892 51.4982 14.1361 51.6311 12.9036 51.8604C13.9422 51.2136 14.9912 50.5395 16.182 50.208C17.5894 49.7994 19.0798 49.9631 20.5097 49.7044C22.8936 49.0321 24.4306 46.9123 26.5615 45.7826C27.1987 45.4739 27.9221 45.2169 28.6371 45.3739C30.4356 45.6636 31.5037 47.4122 33.2261 47.8834C34.7633 48.2594 36.3715 47.6781 37.6144 46.7795C38.2895 46.3121 38.8419 45.6412 39.0252 44.8288C38.7153 43.9699 37.6386 43.8026 36.8406 43.8766C35.5026 43.9956 34.7166 45.2169 33.5879 45.7807C31.9053 45.5965 30.6764 44.3198 29.1323 43.7786C28.1387 43.5285 26.9858 43.6493 26.1807 44.3285C24.8981 45.3564 23.5529 46.3878 21.9448 46.8518C20.0769 47.4555 18.0604 47.1557 16.2359 46.5451C18.1435 46.352 20.0788 45.9463 21.732 44.934C23.7591 43.7303 25.2668 41.5913 27.6973 41.1328C29.0492 40.7827 30.3854 41.3864 31.547 42.0245C32.281 42.39 33.0791 42.8231 33.9272 42.6623C35.2066 42.3726 36.1343 41.3877 37.2128 40.7185C37.7234 40.3891 38.414 40.3598 38.8019 39.8475C39.1273 39.5781 39.0183 39.1352 39.046 38.7676C38.7136 38.4001 38.2618 38.1103 37.744 38.2107C36.0614 38.3556 35.0661 39.9891 33.4995 40.4339C32.904 40.5616 32.3379 40.2891 31.7822 40.1166C30.8596 39.7975 29.8936 39.5612 28.9087 39.606C28.0068 39.5612 27.1499 39.8717 26.2738 40.0253C26.686 39.6616 27.0926 39.2718 27.6104 39.0593C28.8394 38.5039 30.2312 38.7419 31.5208 38.4573C32.6962 38.1693 33.5962 37.3207 34.6021 36.7052C35.6529 35.9927 36.8387 35.4721 38.0901 35.2322C38.7738 35.0659 39.487 35.104 40.1743 34.9454Z" fill="white"/>
<path d="M69.6233 34.8838C71.0791 33.8524 72.4795 32.6778 74.1498 32C73.7724 32.426 73.3466 32.8039 72.8967 33.1468C71.1795 34.4718 69.4382 35.7633 67.655 36.9982C68.0116 36.072 68.905 35.5151 69.6233 34.8838Z" fill="#EEFAF9"/>
<path d="M75.6405 33.6537C76.1354 33.4813 76.6703 33.433 77.1846 33.5537C77.2242 34.4868 76.326 35.0318 75.7287 35.6062C73.8628 37.0895 71.6902 38.1274 69.49 39.0174C69.6198 38.105 69.9316 37.2357 70.2584 36.3802C71.9895 35.3595 73.7205 34.29 75.6405 33.6537Z" fill="#FDFDFC"/>
<path d="M101.217 36.0168C101.596 35.3162 102.425 35.0423 103.172 34.9595C104.615 34.9798 105.432 36.6773 105.1 37.9311C104.875 38.7883 104.039 39.2229 103.277 39.5248C103.146 39.0574 103.026 38.5865 102.905 38.1174C103.167 37.8981 103.658 37.8034 103.657 37.3912C103.665 37.1429 103.613 36.8997 103.588 36.6546C103.344 36.5804 103.098 36.5135 102.852 36.4597L102.618 36.8634C102.582 37.8809 102.516 39.0489 101.697 39.7768C101.098 40.3839 100.165 40.3684 99.381 40.2528C98.0169 39.8906 97.3885 38.1986 97.882 36.9569C98.2333 36.1996 99.0399 35.8426 99.7826 35.5721C99.9368 36.074 100.065 36.5825 100.186 37.093C99.7964 37.3345 99.1146 37.5194 99.2233 38.1092C99.1592 38.4197 99.4691 38.5646 99.6472 38.7578C100.04 38.7164 100.551 38.7767 100.788 38.3802C100.992 37.6053 100.867 36.7548 101.217 36.0168Z" fill="#FBFEFB"/>
<path d="M58.1154 43.6176C58.5795 42.0967 60.0803 41.2066 61.595 41.0201C62.8031 40.9477 64.1156 41.1357 65.071 41.936C65.7271 42.4379 65.9779 43.2589 66.2048 44.0164C66.5755 44.0164 66.9475 44.025 67.3195 44.0509C67.3818 43.0764 68.2196 42.3399 69.0888 42.0222C69.627 41.8032 70.1394 42.1085 70.6102 42.3379C71.0105 42.1447 71.365 41.7773 71.8479 41.8449C72.2618 41.7982 72.6771 42.1947 73.0702 41.9622C73.6534 41.6397 74.4082 41.5396 74.9919 41.9174C75.6028 42.2016 75.8105 42.8936 75.9698 43.4921C77.1954 43.0661 78.6649 42.9764 79.7468 43.8112C80.0636 43.6715 80.3771 43.5231 80.6902 43.3731C80.9172 42.3296 82.0682 41.6449 83.0962 41.9139C84.2334 42.1571 84.9691 43.5869 84.2301 44.5787C84.4068 45.1824 84.4553 45.8274 84.2232 46.4259C84.6803 46.8778 85.1772 47.4246 85.0698 48.1214C85.1546 49.0648 84.4534 49.8151 83.7302 50.3118C84.1941 51.0155 83.9083 51.8589 84.1766 52.6127C84.3516 53.3371 84.2164 54.1736 83.6315 54.686C82.8281 55.5417 81.5542 55.4154 80.4931 55.6089C80.2992 55.4848 80.1055 55.3606 79.9116 55.2416C78.8314 55.7483 77.4968 55.8416 76.5031 55.0877C76.1129 55.455 75.6406 55.7247 75.1252 55.8746C74.5972 56.5969 73.9015 57.3199 72.9804 57.4803C72.0905 57.5117 71.4707 56.713 71.3115 55.9094C70.4183 56.1888 69.4975 56.0629 68.6283 55.7643C67.8682 56.3716 66.8126 56.4437 65.9107 56.1419C65.5247 56.8922 64.9811 57.5804 64.2053 57.9581C62.5504 58.7823 60.2759 58.5066 59.0883 57.0112C58.0965 55.7918 58.2591 53.8842 59.4275 52.8338C59.2544 52.4561 59.121 52.0626 59.0486 51.6558C58.8147 51.5868 58.5831 51.5159 58.3526 51.4488C58.131 51.5644 57.9092 51.6799 57.6896 51.7974C56.5174 51.801 55.3318 51.6818 54.1841 51.9855C53.8604 51.7543 53.4742 51.5785 53.2615 51.2301C53.0607 50.8731 53.1022 50.4539 53.092 50.0623C51.5929 49.6242 51.1063 47.5372 52.1469 46.4299C52.791 45.7381 53.7895 45.6242 54.6844 45.6655C55.2507 45.3912 55.9206 45.0238 56.5265 45.443C57.2866 45.7743 57.1792 46.7141 57.5687 47.3147C58.1471 47.6991 58.7943 47.1577 59.4177 47.156C58.162 46.5016 57.8125 44.9028 58.1154 43.6176Z" fill="#262453"/>
<path d="M60.9505 42.3223C61.9649 42.0222 63.13 42.0447 64.0558 42.5931C65.0339 43.1347 65.3505 44.5714 64.6807 45.4683C64.402 45.8374 63.9381 45.9806 63.5311 46.1546C64.0279 47.4603 64.7948 48.9401 66.2387 49.3613C67.0729 49.5872 67.7276 48.7663 68.5374 48.8439C68.989 48.8556 68.9545 49.418 68.9926 49.7387C68.2433 50.8874 66.6161 51.0875 65.4459 50.5131C64.2722 49.9146 63.5159 48.74 63.0412 47.5517C62.8526 47.0774 62.7002 46.5924 62.5394 46.1098C62.4648 46.1205 62.3125 46.1391 62.2382 46.1494C62.2557 46.4357 62.2747 46.7238 62.2953 47.0118C62.479 47.0944 62.6623 47.1774 62.8474 47.2616C62.8004 47.4737 62.7504 47.6879 62.6969 47.8997C62.3613 48.4848 61.852 48.9553 61.26 49.2761C61.0905 49.1155 60.8774 48.9929 60.7664 48.7842C60.9068 48.3913 61.2183 48.0601 61.2319 47.6251C61.2563 46.8766 61.1506 46.1298 61.1644 45.3812C61.1833 44.9362 60.8651 44.5913 60.6295 44.2515C60.9963 43.7582 61.6212 43.8445 62.1631 43.8565C62.2169 43.9497 62.2721 44.0428 62.3292 44.1377C62.2546 44.5326 62.2219 44.9324 62.2081 45.3343C62.7016 45.3326 63.3038 45.3964 63.6256 44.9324C64.1311 44.3702 63.662 43.4978 63.0094 43.3029C62.0052 42.9627 60.5563 43.2115 60.1549 44.3188C60.3228 44.9449 60.9425 45.395 60.9011 46.0763C60.6345 46.1762 60.3524 46.4092 60.06 46.2505C59.2412 45.8297 58.9623 44.7669 59.2272 43.9341C59.4342 43.1225 60.1699 42.5464 60.9505 42.3223Z" fill="#F9FCFA"/>
<path d="M73.7054 42.8729C73.972 42.776 74.2593 42.8401 74.5363 42.847C74.7702 43.2644 74.9241 43.9043 74.4861 44.2424C74.1399 44.3753 73.6294 44.3545 73.4719 43.9595C73.2191 43.6007 73.4475 43.1557 73.7054 42.8729Z" fill="#F4FAF9"/>
<path d="M68.4618 43.9404C68.6851 43.4661 69.1836 43.2143 69.6422 43.0125C70.2655 44.4285 69.907 46.0308 70.1892 47.5159C70.3434 47.697 70.5215 47.8591 70.6929 48.0281C70.6979 48.1213 70.7068 48.3093 70.7118 48.4024C70.1078 48.687 69.424 48.6128 68.7782 48.568C68.773 48.4629 68.7643 48.2506 68.7593 48.1454C68.8822 47.9574 69.0069 47.7694 69.1019 47.5662C69.0775 46.5452 68.9374 45.5289 68.9563 44.5065C68.7907 44.3216 68.3596 44.2714 68.4618 43.9404ZM70.8387 43.6368C71.1968 43.3298 71.5624 43.0021 72.0399 42.9038C72.4105 43.7265 72.3428 44.651 72.4312 45.5306C72.497 46.3068 72.2685 47.2326 72.9004 47.8332H73.5306C73.6136 47.7349 73.7782 47.54 73.8594 47.4434C73.8644 46.9224 73.8644 46.4016 73.8403 45.8821C73.6863 45.8442 73.3781 45.7704 73.2241 45.7324C73.3695 45.1098 73.9269 44.7441 74.4808 44.5161C74.8584 45.3923 74.6797 46.3703 74.8617 47.2878C75.0467 47.4793 75.2337 47.6707 75.4223 47.8622C75.4154 47.9467 75.4035 48.1123 75.3981 48.1951C74.839 48.2989 74.271 48.3451 73.7034 48.352C73.5267 48.2192 73.3503 48.0916 73.1753 47.9605C72.7513 48.7401 71.7196 48.5021 71.0114 48.3486C71.162 47.9329 71.51 47.5655 71.453 47.096C71.4184 46.3494 71.3665 45.6027 71.3301 44.8559C71.3042 44.6765 71.2816 44.4989 71.2624 44.3209C70.8958 44.2576 70.8506 43.9438 70.8387 43.6368Z" fill="#F8FCF9"/>
<path d="M81.9314 43.3625C82.2882 42.6864 83.5673 43.0038 83.3803 43.8231C83.1449 44.2267 82.6671 44.03 82.2948 44.0525C82.6962 44.594 83.4682 45.0908 83.2072 45.8686C82.8973 46.5927 81.9903 46.6517 81.3288 46.869C81.2942 46.9432 81.2248 47.0915 81.1902 47.1672C81.9053 47.5329 82.6962 46.9602 83.4148 47.3086C83.7646 47.4294 83.8944 47.8037 84.0395 48.1089C83.7937 49.3025 82.4488 49.7665 81.3615 49.6837C80.8993 49.6026 80.2883 49.5371 80.0477 49.08C79.8313 48.6626 80.2277 48.1503 80.676 48.2314C81.0673 48.5039 81.4048 48.8527 81.8376 49.0664C82.234 48.9165 82.9507 48.8508 82.8208 48.2607C82.6063 47.9641 82.2063 48.002 81.8878 48.0279C81.4081 48.0658 80.927 48.0658 80.4458 48.0555C80.3212 47.9313 80.1981 47.8071 80.0752 47.6847C80.0734 47.526 80.0734 47.369 80.0734 47.214C80.2637 47.0388 80.4565 46.8663 80.6516 46.6965C80.4316 46.4464 80.096 46.2533 80.0371 45.9028C79.9109 45.513 80.1342 45.1511 80.281 44.8076C80.8092 44.5212 81.3873 44.3608 81.9809 44.2798C81.8966 43.985 81.6525 43.6245 81.9314 43.3625Z" fill="#F6FAF7"/>
<path d="M77.304 44.7886C77.7229 44.5265 78.2767 44.1746 78.7597 44.4989C79.2826 44.8525 79.2099 45.5406 79.2617 46.0874C79.2392 46.5531 79.7427 46.7809 79.7758 47.2326C79.3413 47.6932 78.9085 48.4714 78.1538 48.1933C78.2905 47.2896 78.5363 46.3047 78.107 45.4423C77.8422 45.5099 77.5825 45.5803 77.3192 45.6476C77.2502 46.0112 77.1203 46.3754 77.1719 46.7511C77.2171 47.253 77.6862 47.5393 77.9165 47.955C77.3142 48.2482 76.6426 48.2499 75.9896 48.2137L75.718 47.8808C75.8842 47.7083 76.0523 47.5393 76.2287 47.377C76.2756 47.2357 76.3258 47.0978 76.3741 46.9577C76.2981 46.5852 76.2631 46.2074 76.2424 45.8297L75.7267 45.7331C75.7301 45.4675 75.7957 45.2138 75.8929 44.9708C76.1889 44.7724 76.483 44.5706 76.7859 44.3788C76.9729 44.5896 77.1008 44.8359 77.2256 45.0894C77.2452 45.0147 77.2851 44.8647 77.304 44.7886Z" fill="#F8FBF9"/>
<path d="M80.9757 45.4992C81.1073 45.0094 81.6787 45.0425 82.0765 45.1059C82.2057 45.3008 82.3092 45.5113 82.3847 45.7324C82.106 45.8997 81.8082 46.0273 81.5086 46.1498C81.2995 45.9787 80.8078 45.8752 80.9757 45.4992Z" fill="#262453"/>
<path d="M65.8512 45.2788C66.6113 44.9066 67.65 45.1602 68.0478 45.9325C68.4061 46.7107 68.4253 47.7487 67.7761 48.3817C67.3001 48.906 66.4865 48.8474 65.86 48.6956C64.541 48.1197 64.5235 45.8585 65.8512 45.2788Z" fill="#F8FBF6"/>
<path d="M62.2385 46.15C62.3131 46.1393 62.4655 46.1207 62.5397 46.1104C62.7009 46.5933 62.8532 47.0779 63.0416 47.5523C62.9256 47.6678 62.8096 47.7834 62.6973 47.9007C62.7511 47.6887 62.8011 47.4746 62.8477 47.2625C62.6626 47.1783 62.479 47.0952 62.2956 47.0127C62.275 46.7244 62.2558 46.4363 62.2385 46.15Z" fill="#152028"/>
<path d="M66.0641 46.1754C66.4347 45.7618 67.2068 46.0288 67.2722 46.5704C67.3276 47.0171 67.4142 47.6329 66.926 47.8847C66.585 47.9314 66.1264 47.9727 65.967 47.588C65.7577 47.162 65.7164 46.5357 66.0641 46.1754Z" fill="#262453"/>
<path d="M55.2192 46.8223C55.4683 46.545 55.7768 46.367 56.1594 46.4429C56.1574 46.7568 56.2063 47.1293 55.8997 47.3259C55.6279 47.3915 55.349 47.3967 55.0738 47.4211C55.1134 48.0797 55.105 48.7403 55.1621 49.3977C55.28 49.5443 55.3992 49.6927 55.5189 49.8426C55.1915 50.2843 54.8559 50.8655 54.2136 50.8155C54.3279 50.1149 54.7141 49.327 54.238 48.6768C53.9576 49.1131 53.2202 49.0493 52.9434 48.6444C52.547 48.1942 52.6299 47.4008 53.139 47.0645C53.7409 46.629 54.532 46.8965 55.2192 46.8223Z" fill="#F2FAF9"/>
<path d="M53.3306 48.1814C53.4034 47.9023 53.3565 47.5277 53.6873 47.4088C53.9106 47.3621 54.1376 47.3398 54.3678 47.3398C54.3834 47.6762 54.4059 48.0142 54.4369 48.354C54.0889 48.185 53.7027 48.2074 53.3306 48.1814Z" fill="#262453"/>
<path d="M55.8997 47.3257C56.0259 47.3724 56.2786 47.464 56.4069 47.5089C56.471 47.8676 56.4746 48.235 56.5023 48.6006C56.8918 48.4037 57.2918 48.3331 57.6758 48.5851C57.7154 48.918 57.7504 49.2505 57.7762 49.5855C57.8816 49.7335 57.9889 49.8837 58.0966 50.0353C57.9033 50.2621 57.7024 50.4824 57.4944 50.6959L56.9976 50.5993C57.1793 50.0974 57.3194 49.5127 56.982 49.0384C56.8208 49.0953 56.6685 49.1726 56.5165 49.2488C56.5201 49.4885 56.5302 49.7317 56.5476 49.9732C56.6706 50.1733 56.7987 50.3716 56.9335 50.5662C56.5215 50.6231 56.1062 50.6593 55.6906 50.6681C55.6818 50.6024 55.6646 50.4699 55.656 50.4023C55.7633 50.2388 55.8706 50.0781 55.9728 49.9146C55.8466 49.3851 55.8549 48.8383 55.8535 48.2985C55.2367 48.1555 55.7837 47.6587 55.8997 47.3257Z" fill="#F2F9F8"/>
<path d="M58.7762 48.3742C59.3061 48.2694 60.0332 48.3156 60.1575 48.9693C60.3652 49.7144 59.3681 49.6213 58.9007 49.642C58.9251 49.7175 58.9753 49.8693 59.0011 49.9455C59.4012 49.9369 59.7695 49.761 60.1644 49.7161C60.2978 50.6579 58.6585 50.801 58.4021 49.9645C58.089 49.402 58.3384 48.7796 58.7762 48.3742Z" fill="#F1FBF9"/>
<path d="M58.6726 48.9904C58.998 48.8921 59.3268 48.8024 59.661 48.728C59.7218 49.3371 58.9634 49.3992 58.6726 48.9904Z" fill="#61A6C3"/>
<path d="M62.3373 49.9647C62.6991 50.0181 63.0261 49.5559 63.3671 49.8177C63.8312 50.2058 64.1134 50.825 64.0908 51.4307C63.9385 51.5564 63.7635 51.6463 63.5923 51.7412C63.1559 51.3786 62.7179 50.9995 62.1747 50.8132C61.9631 50.8885 61.7519 50.965 61.5412 51.0426C61.5135 51.3013 61.2244 51.648 61.5758 51.8029C62.4758 52.3224 63.5752 52.438 64.3993 53.1124C64.8873 53.7626 65.0571 54.5732 64.9792 55.3732C64.4599 57.3618 61.6644 57.9017 60.224 56.5842C59.3238 55.8442 59.3152 54.1419 60.3988 53.5637C60.9666 53.2139 61.7958 53.2188 62.227 53.7793C62.1474 53.9677 62.0696 54.1571 61.9917 54.3468C61.6059 54.4782 61.1331 54.4986 60.8666 54.8435C60.7331 55.3299 60.9306 55.9098 61.4222 56.1098C62.0731 56.3958 62.9558 56.3303 63.4701 55.808C64.0516 55.1474 63.8771 53.9901 63.0892 53.5675C62.3155 53.1588 61.4136 53.0173 60.6832 52.5206C60.1101 52.1256 60.0116 51.277 60.4255 50.7341C60.8262 50.0992 61.6208 49.8681 62.3373 49.9647Z" fill="#F8FCF9"/>
<path d="M80.4426 50.8306C80.915 50.4101 81.6249 50.8306 82.1079 50.4304C82.1962 50.4304 82.3745 50.4287 82.4627 50.4287C82.698 50.7982 82.8799 51.1997 83.0272 51.6154C82.5252 52.0655 82.0144 51.605 81.5714 51.3273C81.4918 51.338 81.3292 51.3549 81.2496 51.3653C81.2477 51.4998 81.246 51.6361 81.2477 51.774C81.8172 52.0328 82.5133 52.0983 82.9649 52.5678C83.3094 52.9334 83.0636 53.4302 82.9632 53.8476C82.5079 54.2374 81.9263 54.3443 81.3431 54.2406C81.1336 54.3426 80.9121 54.5425 80.6643 54.4374C80.2524 54.0925 79.9858 53.5837 80.0033 53.0421C80.6316 52.7127 81.1165 53.3232 81.6755 53.5128C82.0875 53.6784 81.9959 53.1697 82.0442 52.9488C81.4572 52.7608 80.8619 52.5862 80.3114 52.3054L80.0623 51.9056C80.055 51.5152 80.1327 51.0979 80.4426 50.8306Z" fill="#F7FAF9"/>
<path d="M73.5822 51.4121C74.0619 51.1292 74.6522 50.8222 75.201 51.1292C76.2585 51.7222 76.3867 53.3214 75.7045 54.2456C75.3671 54.7751 74.5688 54.932 74.0652 54.551C73.7692 54.3992 73.7448 53.916 74.0098 53.7248C74.2575 53.6886 74.5103 53.6731 74.7646 53.6766C75.1679 53.2902 75.2718 52.7521 75.0085 52.2536L74.6209 51.9846C74.2503 51.988 73.7797 52.0794 73.6946 52.5089C73.6305 53.085 73.6738 53.6679 73.6965 54.2473C73.6877 54.5803 74.0289 54.7442 74.1829 55.0046C74.2627 55.2751 74.0012 55.46 73.8644 55.6549C73.5301 55.9743 73.1739 56.4431 72.649 56.3037C72.4378 55.8294 72.7356 55.3361 72.7217 54.8515C72.6906 54.0733 72.5883 53.3009 72.6094 52.523C72.4413 52.4416 72.2737 52.3623 72.1089 52.2829C72.0933 52.1864 72.062 51.9932 72.0483 51.8966C72.3876 51.5313 72.7581 51.1204 73.2912 51.0794C73.3641 51.162 73.5095 51.3291 73.5822 51.4121Z" fill="#F8FCF9"/>
<path d="M77.0341 51.224C77.744 50.5096 79.1546 50.6458 79.5993 51.5931C79.7743 51.9604 79.8834 52.5969 79.4193 52.7918C78.8448 53.09 78.1887 53.0022 77.569 53.0074C77.5847 53.0953 77.6192 53.2747 77.6367 53.3627C78.3204 53.8663 78.9594 53.1523 79.6743 53.1764C79.6881 53.392 79.7331 53.6112 79.7056 53.8301C79.4496 54.2858 78.892 54.3943 78.4385 54.5562C77.5781 54.5683 76.7111 54.0184 76.5759 53.1333C76.3763 52.4723 76.5563 51.724 77.0341 51.224Z" fill="#F8FBF9"/>
<path d="M68.8566 51.8674C69.2928 51.2068 70.1999 51.1671 70.8906 51.3675C71.7492 51.6832 71.9172 52.7059 71.891 53.5059C71.7404 53.9733 71.5465 54.5013 71.0688 54.7308C70.6066 54.9999 70.0595 54.8964 69.5522 54.915C68.4462 54.3717 68.0982 52.8298 68.8566 51.8674Z" fill="#F9FDF8"/>
<path d="M65.8478 51.7964C66.1682 51.5135 66.6025 51.4449 66.9988 51.3311C67.364 51.4583 67.7829 51.5311 68.0634 51.8192C68.2728 52.1003 68.2174 52.5363 67.8884 52.7071C67.416 52.5174 66.9484 52.2642 66.4222 52.3449C66.1261 52.8675 65.9944 53.6454 66.5451 54.0521C67.1335 54.3401 67.6876 53.7485 68.295 53.8416C68.3069 54.1487 68.4525 54.5678 68.1131 54.7592C67.6528 55.1973 66.9654 55.2228 66.377 55.1023C65.0742 54.6321 64.8022 52.6555 65.8478 51.7964Z" fill="#F7FCF8"/>
<path d="M77.6971 51.695C78.1386 51.595 78.786 51.4884 78.8187 52.1228C78.3532 52.2556 77.8716 52.3208 77.3887 52.3453C77.4877 52.1262 77.5914 51.9106 77.6971 51.695Z" fill="#262453"/>
<path d="M69.7322 52.1882C70.0265 52.0537 70.3519 52.1502 70.6585 52.1899C70.8854 52.6247 71.0655 53.1282 70.8662 53.6129C70.6862 54.2114 69.7028 54.2252 69.4987 53.6284C69.4275 53.1489 69.3238 52.5502 69.7322 52.1882Z" fill="#262453"/>
<path d="M100.595 57.2037C101.819 56.9243 102.707 55.9705 103.652 55.2427C105.366 55.4203 106.995 56.2275 108.195 57.4556C109.244 58.6215 109.967 60.1496 109.9 61.7416C109.998 63.8564 108.877 65.89 107.244 67.1884C104.485 69.4462 100.123 69.4927 97.3998 67.1489C95.7881 65.8086 94.8723 63.6527 95.1356 61.5676C95.2691 60.2999 95.8055 59.1012 96.5795 58.0939C97.9244 57.8298 99.2557 57.4951 100.595 57.2037Z" fill="white"/>
<path d="M21.3423 58.6626C21.846 59.1645 22.3394 59.6768 22.8518 60.17C23.224 60.4874 23.2828 60.9997 23.454 61.4322C25.9227 68.3865 30.1844 74.6957 35.7257 79.5906C40.6627 83.9715 46.5951 87.2452 52.9654 89.0251C60.2239 91.0724 68.017 91.2104 75.3394 89.3956C85.7189 86.893 95.0409 80.4082 101.056 71.6287C101.565 71.5701 102.076 71.5149 102.59 71.4925C96.4704 80.853 86.7387 87.8209 75.8432 90.4963C73.2241 91.1773 70.5375 91.583 67.8406 91.7604C64.1464 92.0055 60.4246 91.7861 56.7824 91.1293C49.609 89.8406 42.7783 86.7467 37.0534 82.2571C29.4677 76.3329 23.8348 67.9488 21.3423 58.6626Z" fill="#FAFCFA"/>
<path d="M90.121 59.2908C90.341 59.2652 90.5693 59.1838 90.7945 59.239C92.1398 60.3291 93.1002 61.9021 93.315 63.6303C93.8501 67.0074 91.4177 70.3862 88.1964 71.3435C86.022 72.0472 83.5244 71.7574 81.6253 70.4673C80.1364 69.5031 79.0337 67.9527 78.6788 66.2123C78.2649 64.4671 78.6736 62.5699 79.6517 61.0793C79.7709 60.8224 80.0825 60.8551 80.3164 60.8103C83.5968 60.3841 86.8614 59.8496 90.121 59.2908ZM44.8034 64.8445C45.5133 62.6454 47.2494 60.7275 49.4825 60.0169C49.7889 60.9638 50.5384 61.7244 51.4957 62.0228C53.6005 62.7353 55.863 62.4492 58.0461 62.513C59.1191 64.0908 59.6786 66.0781 59.2753 67.9702C58.7075 71.3266 55.5189 73.9689 52.1139 73.9655C49.6365 74.0862 47.1526 72.8495 45.7608 70.8039C44.5645 69.0873 44.2392 66.8504 44.8034 64.8445ZM63.5543 62.366C67.1915 62.2022 70.8284 61.9417 74.4444 61.5036C75.7253 62.7989 76.5475 64.5789 76.4733 66.4175C76.4544 68.5804 75.2598 70.6415 73.4977 71.873C71.8395 73.0527 69.6774 73.5184 67.6812 73.0803C65.0934 72.5715 62.8896 70.5207 62.2785 67.9508C62.1175 66.8004 62.1019 65.6069 62.4499 64.4875C62.7097 63.7286 63.1215 63.0366 63.5543 62.366Z" fill="white"/>
<path d="M40.9986 63.8115C41.2669 63.6773 41.5387 63.5479 41.812 63.4165C41.1975 64.9002 41.0244 66.5163 41.1059 68.1062C40.046 66.8833 39.0565 65.6014 38.1423 64.2668C39.1169 64.3065 40.0879 64.1702 40.9986 63.8115Z" fill="#FAFCFB"/>
<path d="M33.2137 69.5101C34.6176 68.6391 35.9367 67.6336 37.351 66.7764C37.6851 67.2645 38.014 67.756 38.3169 68.2649C37.0411 69.0927 35.793 69.9586 34.5172 70.783C33.915 71.1487 33.2484 71.5299 32.5144 71.4405C31.2111 71.3974 30.1688 70.059 30.3696 68.7926C30.5133 68.0148 31.0689 67.3317 31.7925 67.0092C32.073 67.4525 32.3967 67.8664 32.6669 68.3166C32.4142 68.6874 31.8843 69.0272 32.1162 69.5415C32.3951 69.9344 32.885 69.6964 33.2137 69.5101Z" fill="#FBFDFB"/>
<path d="M37.1315 70.9779C37.682 70.4653 38.3087 69.8497 39.1309 69.9431C40.3823 70.1119 41.4038 71.2108 41.6012 72.4369C41.6652 73.1873 41.203 73.8493 40.6404 74.2998C39.3958 75.4002 38.2446 76.6058 36.9567 77.6579C36.6349 77.3302 36.3095 77.0075 35.989 76.68C36.5811 75.8935 37.3808 75.2847 38.1113 74.631C37.7513 74.1891 37.3687 73.7686 36.9792 73.356C36.2002 73.9461 35.5391 74.6724 34.7948 75.3016C34.4572 75.0015 34.1387 74.6824 33.8219 74.3616C33.815 74.2998 33.8011 74.1718 33.7925 74.108C34.8792 73.0371 36.046 72.0485 37.1315 70.9779Z" fill="#FCFDFB"/>
<path d="M67.1496 75.8431C71.1067 76.3501 75.2581 74.1752 77.0273 70.6001C78.1611 72.1282 79.797 73.263 81.6146 73.8323C81.6096 73.8685 81.5957 73.9427 81.5888 73.9789C75.4762 77.732 68.0846 79.374 60.9578 78.4651C58.2591 78.127 55.5915 77.4616 53.0764 76.4229C55.9985 75.8417 58.5656 73.8496 59.9211 71.2141C61.4183 73.7807 64.188 75.545 67.1496 75.8431Z" fill="white"/>
<path d="M38.755 71.6296C39.4145 71.5865 40.1743 72.2008 39.9096 72.9025C39.6776 73.177 39.392 73.4013 39.1201 73.6355C38.7167 73.2474 38.3255 72.8476 37.9568 72.4264C38.2216 72.1596 38.4877 71.8939 38.755 71.6296Z" fill="#262453"/>
<path d="M43.2714 73.1235C43.6797 73.3929 44.0677 73.6927 44.4623 73.9842C43.943 75.1933 43.4514 76.4161 42.8888 77.6062C42.8698 77.718 42.828 77.9405 42.8073 78.0512C43.9119 77.0905 45.0698 76.1952 46.2019 75.2671C46.5758 75.5758 46.9618 75.869 47.3565 76.1521C45.3902 77.8063 43.3647 79.391 41.3826 81.0295C41.0087 80.7467 40.6313 80.4707 40.2505 80.1982C41.2407 77.8322 42.2776 75.4882 43.2714 73.1235Z" fill="#FBFDFB"/>
<path d="M79.4038 78.179C80.785 77.4094 82.1266 76.5729 83.4754 75.7505C83.754 76.1817 84.0205 76.6215 84.2596 77.0782C83.8216 77.3438 83.3627 77.5751 82.9456 77.872C82.9838 78.0979 83.1067 78.2945 83.2227 78.4912C84.0988 79.9417 85.0021 81.3784 85.8487 82.8496C85.8884 82.8772 85.9699 82.9324 86.0099 82.9604C85.5695 83.2156 85.1377 83.4853 84.7152 83.769C83.5573 82.148 82.6587 80.3577 81.5597 78.6967C81.0906 78.9689 80.6318 79.259 80.1471 79.5039C79.8989 79.0601 79.6479 78.6203 79.4038 78.179Z" fill="#FBFDF9"/>
<path d="M48.3971 77.4109C49.7958 77.0004 51.5113 77.8832 51.8592 79.3254C51.9996 80.0878 51.5357 80.757 51.2152 81.4072C50.559 82.7332 49.8615 84.0354 49.1864 85.3518C48.7329 85.1534 48.2949 84.924 47.8622 84.6874C48.2968 83.8078 48.7485 82.9385 49.1882 82.0623C48.6758 81.8036 48.1841 81.4912 47.6338 81.3172C47.2269 82.1692 46.7493 82.9871 46.3561 83.8474C45.8837 83.7164 45.4473 83.4907 45.0078 83.2834C45.0405 82.8867 45.2173 82.528 45.4041 82.1848C46.0032 80.9998 46.6385 79.8339 47.2217 78.6404C47.4588 78.1127 47.8156 77.592 48.3971 77.4109Z" fill="#FBFDFA"/>
<path d="M48.7847 79.0846C48.8834 79.0463 49.0772 78.9725 49.1742 78.9346C49.6364 79.0312 50.315 79.2364 50.3063 79.8156C50.194 80.183 49.986 80.5124 49.806 80.8504C49.2936 80.6004 48.7812 80.3506 48.2808 80.0764C48.4416 79.7422 48.6096 79.4116 48.7847 79.0846Z" fill="#262453"/>
<path d="M74.0999 80.0552C75.3222 79.7188 76.5339 78.7526 77.8443 79.2376C79.1044 79.5981 79.8212 81.1797 79.2204 82.3508C78.8397 83.1149 78.0796 83.5772 77.2973 83.8497C77.6228 84.7121 77.9792 85.5637 78.2702 86.4403C77.848 86.6248 77.4185 86.7889 77.0013 86.9801C76.8973 86.9838 76.7936 86.987 76.6914 86.9922C75.999 85.2347 75.3393 83.465 74.6557 81.704C74.4461 81.1625 74.1829 80.6347 74.0999 80.0552Z" fill="#FCFEFC"/>
<path d="M54.1372 79.6427C54.9595 79.3996 55.8733 79.5741 56.5851 80.0394C57.3502 80.6345 57.4989 81.728 57.2221 82.6093C56.7705 82.4938 56.3222 82.3679 55.8825 82.2195C55.8356 81.8501 55.9152 81.3296 55.5068 81.1347C55.2591 80.9553 54.946 81.0105 54.6638 80.9915C54.5772 81.2002 54.4924 81.4122 54.4091 81.6245C55.1864 82.3127 56.2406 82.7836 56.637 83.8167C57.0767 85.1465 56.1213 86.7039 54.745 86.9661C54.5423 86.9613 54.3434 86.9592 54.1441 86.9592C53.4328 86.7819 52.6364 86.5316 52.2519 85.8519C51.8418 85.1934 51.9628 84.3809 52.0719 83.6549C52.5792 83.7636 53.088 83.8772 53.5762 84.0602C53.6106 84.5483 53.5535 85.0778 53.9224 85.4642C54.1022 85.4642 54.4606 85.4663 54.639 85.4663C54.8729 85.1417 55.162 84.7763 55.1064 84.3538C54.5577 83.6121 53.571 83.3189 53.1018 82.5045C52.6779 81.4914 53.0935 80.105 54.1372 79.6427Z" fill="#FAFCF9"/>
<path d="M71.2729 80.5261C71.8217 80.4105 72.3704 80.2918 72.9261 80.2139C73.4297 82.6389 73.8557 85.0794 74.3717 87.5027C73.9201 87.6097 73.4666 87.7063 73.0076 87.7787C72.9523 87.8132 72.8396 87.8825 72.7843 87.9188C72.5591 87.3115 72.4762 86.6683 72.3447 86.0401C71.9879 84.2015 71.6228 82.3664 71.2729 80.5261Z" fill="#FBFEFA"/>
<path d="M76.1943 81.0247C76.6429 80.8401 77.1189 80.707 77.6086 80.8108C77.8006 81.154 77.9462 81.5594 77.7712 81.9436C77.4788 82.2282 77.072 82.3407 76.6875 82.4424C76.5198 81.9697 76.3399 81.5023 76.1943 81.0247Z" fill="#262453"/>
<path d="M59.2491 81.8385C60.0525 80.5881 62.088 80.4156 63.1113 81.497C63.423 81.7971 63.5667 82.2145 63.7429 82.5995C63.7412 82.991 63.7395 83.3843 63.7325 83.7792C63.2182 83.7979 62.7043 83.7499 62.1935 83.6982C62.1884 83.4343 62.1815 83.17 62.1829 82.9099C61.8453 82.5443 61.326 82.3318 60.8482 82.5512C60.4241 82.8513 60.4984 83.4188 60.4016 83.8672C60.3272 84.6002 60.1472 85.3229 60.1541 86.0663C60.218 86.1611 60.3497 86.3509 60.4137 86.4457C60.8083 86.6768 61.248 86.6251 61.648 86.4337C61.7588 86.1715 61.8694 85.911 61.9785 85.6506C62.4858 85.7058 62.9913 85.7851 63.5001 85.8407C63.4983 86.5979 63.244 87.4547 62.5291 87.8359C61.4159 88.4361 59.8132 88.343 59.0099 87.2753C58.3626 86.5668 58.5182 85.5437 58.6811 84.6832C58.8873 83.7392 58.8769 82.7371 59.2491 81.8385Z" fill="#FCFEFD"/>
<path d="M64.9409 81.1329C65.9119 80.9966 66.8934 80.9276 67.8749 80.9276C68.3754 80.9104 68.827 81.1484 69.258 81.3761C69.966 82.2405 70.0959 83.5134 69.561 84.4965C69.3879 84.8394 69.0728 85.0843 68.891 85.4207C69.3013 86.38 69.9279 87.2337 70.4057 88.1648C69.85 88.1734 69.298 88.2255 68.7456 88.2615C68.1259 87.3355 67.6324 86.3282 66.9453 85.45C66.9541 86.4369 67.1254 87.4128 67.1461 88.4011C66.6216 88.4459 66.1006 88.5184 65.5743 88.5356C65.5085 88.0075 65.4914 87.4749 65.4289 86.9471C65.3249 85.6809 65.2089 84.4148 65.0946 83.149C65.0173 82.4782 64.9859 81.8056 64.9409 81.1329Z" fill="#FDFEFC"/>
<path d="M66.7029 82.4803C67.2397 82.3185 67.79 82.413 68.2522 82.7218C68.3143 82.9284 68.3801 83.1392 68.4461 83.3479C68.3143 83.5945 68.2122 83.8908 67.9492 84.0326C67.5961 84.1361 67.2324 84.1947 66.8691 84.2534C66.7496 83.6685 66.7081 83.0754 66.7029 82.4803Z" fill="#262453"/>
</g>
<defs>
<clipPath id="clip0">
<rect width="112" height="94" fill="white"/>
</clipPath>
</defs>
</svg>
